<svg width="23" height="23" viewBox="0 0 23 23" fill="none" xmlns="http://www.w3.org/2000/svg">
<g id="icn bx-star">
<path id="Vector" d="M6.03166 13.1377L4.66498 19.0557C4.62266 19.2349 4.63536 19.4227 4.70143 19.5945C4.7675 19.7664 4.88387 19.9143 5.03533 20.0191C5.18679 20.1238 5.36631 20.1804 5.55043 20.1814C5.73456 20.1825 5.91474 20.1281 6.06743 20.0252L11.0618 16.6956L16.0561 20.0252C16.2123 20.1289 16.3966 20.1823 16.5841 20.1782C16.7716 20.1741 16.9533 20.1127 17.1049 20.0022C17.2564 19.8917 17.3705 19.7375 17.4317 19.5602C17.493 19.383 17.4985 19.1912 17.4476 19.0107L15.7699 13.1404L19.9305 9.39628C20.0638 9.27629 20.1589 9.11988 20.2042 8.94638C20.2495 8.77289 20.243 8.58992 20.1854 8.4201C20.1278 8.25029 20.0217 8.10107 19.8802 7.99091C19.7388 7.88075 19.5681 7.81448 19.3893 7.80029L14.1602 7.38386L11.8974 2.37485C11.8252 2.21356 11.7079 2.0766 11.5597 1.98049C11.4114 1.88439 11.2385 1.83325 11.0618 1.83325C10.8851 1.83325 10.7122 1.88439 10.5639 1.98049C10.4156 2.0766 10.2983 2.21356 10.2262 2.37485L7.96335 7.38386L2.7342 7.79937C2.55851 7.81329 2.39055 7.87753 2.25041 7.98441C2.11027 8.09128 2.00389 8.23627 1.944 8.40202C1.8841 8.56777 1.87323 8.74727 1.91268 8.91904C1.95212 9.09081 2.04022 9.24758 2.16643 9.37059L6.03166 13.1377ZM8.64853 9.16972C8.81225 9.15682 8.96948 9.10012 9.10375 9.00555C9.23802 8.91098 9.34438 8.78203 9.41167 8.63222L11.0618 4.98071L12.7119 8.63222C12.7792 8.78203 12.8855 8.91098 13.0198 9.00555C13.1541 9.10012 13.3113 9.15682 13.475 9.16972L17.1183 9.45865L14.118 12.159C13.8575 12.3938 13.7539 12.7552 13.8492 13.0927L14.9985 17.1148L11.5718 14.83C11.4213 14.729 11.2443 14.6751 11.0631 14.6751C10.882 14.6751 10.7049 14.729 10.5545 14.83L6.97366 17.2175L7.93675 13.0478C7.97207 12.8944 7.96733 12.7346 7.92299 12.5836C7.87866 12.4326 7.79621 12.2955 7.6836 12.1856L4.89704 9.46874L8.64853 9.16972Z" fill="#F3CD03"/>
</g>
</svg>
