<svg width="23" height="23" viewBox="0 0 23 23" fill="none" xmlns="http://www.w3.org/2000/svg">
<g id="icn bxs-star">
<path id="Vector" d="M20.1308 8.41927C20.0732 8.24946 19.967 8.10025 19.8256 7.99006C19.6841 7.87987 19.5134 7.81353 19.3347 7.79922L14.1055 7.38371L11.8427 2.3747C11.7706 2.21337 11.6534 2.07634 11.5052 1.98016C11.357 1.88397 11.1841 1.83274 11.0074 1.83264C10.8307 1.83254 10.6577 1.88359 10.5094 1.97961C10.3611 2.07563 10.2437 2.21253 10.1715 2.37378L7.90867 7.38371L2.67951 7.79922C2.50382 7.81314 2.33586 7.87738 2.19572 7.98425C2.05559 8.09113 1.94921 8.23612 1.88931 8.40187C1.82941 8.56762 1.81854 8.74712 1.85799 8.91889C1.89744 9.09066 1.98553 9.24743 2.11175 9.37044L5.97605 13.1375L4.60937 19.0555C4.56788 19.2347 4.58118 19.4221 4.64755 19.5936C4.71392 19.7651 4.8303 19.9127 4.98159 20.0172C5.13288 20.1217 5.31208 20.1783 5.49596 20.1797C5.67983 20.1811 5.85988 20.1272 6.01274 20.025L11.0071 16.6955L16.0014 20.025C16.1577 20.1288 16.3419 20.1822 16.5294 20.1781C16.7169 20.1739 16.8986 20.1125 17.0502 20.002C17.2017 19.8916 17.3158 19.7373 17.3771 19.5601C17.4383 19.3828 17.4438 19.1911 17.3929 19.0106L15.7152 13.1403L19.8758 9.39612C20.1482 9.15031 20.2482 8.7669 20.1308 8.41927Z" fill="#F3CD03"/>
</g>
</svg>
